<?xml version="1.0" encoding="utf-8"?>
<!-- Generator: Adobe Illustrator 25.4.1, SVG Export Plug-In . SVG Version: 6.00 Build 0)  -->
<svg version="1.1" id="Layer_1" xmlns="http://www.w3.org/2000/svg" xmlns:xlink="http://www.w3.org/1999/xlink" x="0px" y="0px"
	 viewBox="0 0 800 800" style="enable-background:new 0 0 800 800;" xml:space="preserve">
<style type="text/css">
	.st0{fill:#2E3E40;}
</style>
<path class="st0" d="M494,368.7c0-52-42.1-94.1-94.1-94.1s-94,42.1-94,94.1c0,52,42.1,94,94,94S494,420.6,494,368.7L494,368.7z
	 M400,745c-60.7,0-117.5-14.9-168.3-40.4l105.1-209.5c19,9.5,40.6,14.7,63.2,14.7c22.6,0,44.2-5.2,63.2-14.7l105.1,209.5
	C517.5,730,460.7,745,400,745L400,745z M725.9,180.6c30.3,52.5,45.8,109.3,49.1,165.9l-233.9,13.7c-1.3-21.1-7.6-42.5-18.9-62.1
	c-11.3-19.6-26.6-35.7-44.3-47.4L606.7,55C654.1,86.2,695.5,128,725.9,180.6L725.9,180.6L725.9,180.6z M74.1,180.6
	C104.4,128,145.8,86.2,193.3,55l128.9,195.8c-17.7,11.7-33,27.8-44.3,47.4c-11.3,19.6-17.6,41-18.9,62.1L25,346.5
	C28.3,289.9,43.8,233.1,74.1,180.6L74.1,180.6L74.1,180.6z"/>
</svg>
